<svg width="32" height="32" viewBox="0 0 32 32" fill="none" xmlns="http://www.w3.org/2000/svg">
  <defs>
    <linearGradient id="brainGradient" x1="0%" y1="0%" x2="100%" y2="100%">
      <stop offset="0%" style="stop-color:#6366f1;stop-opacity:1" />
      <stop offset="100%" style="stop-color:#8b5cf6;stop-opacity:1" />
    </linearGradient>
    <linearGradient id="bookGradient" x1="0%" y1="0%" x2="100%" y2="100%">
      <stop offset="0%" style="stop-color:#06b6d4;stop-opacity:1" />
      <stop offset="100%" style="stop-color:#3b82f6;stop-opacity:1" />
    </linearGradient>
  </defs>
  
  <!-- Background circle -->
  <circle cx="16" cy="16" r="15" fill="url(#brainGradient)" stroke="#ffffff" stroke-width="2"/>
  
  <!-- Brain shape -->
  <path d="M10 12c0-2 1.5-3.5 3.5-3.5s3.5 1.5 3.5 3.5c0 0.5-0.1 1-0.3 1.4
           C17.4 12.8 18 13.8 18 15c0 1.5-1 2.8-2.3 3.2
           C15.9 18.7 16 19.3 16 20c0 1.5-1.2 2.7-2.7 2.7s-2.7-1.2-2.7-2.7
           c0-0.7 0.3-1.3 0.7-1.8C10.5 17.8 10 16.9 10 16
           c0-0.8 0.3-1.5 0.8-2C10.3 13.5 10 12.8 10 12z" 
        fill="white" opacity="0.9"/>
  
  <!-- Brain details -->
  <path d="M12 14c0.5-0.5 1.2-0.8 2-0.8s1.5 0.3 2 0.8" 
        stroke="url(#brainGradient)" stroke-width="1" fill="none" opacity="0.6"/>
  <path d="M11.5 17c0.8-0.3 1.7-0.3 2.5 0s1.7 0.3 2.5 0" 
        stroke="url(#brainGradient)" stroke-width="1" fill="none" opacity="0.6"/>
  
  <!-- Book pages -->
  <path d="M20 10 L26 10 L26 22 L20 22 Z" 
        fill="white" opacity="0.8" stroke="url(#bookGradient)" stroke-width="1"/>
  <path d="M22 12 L24 12 M22 14 L24 14 M22 16 L23.5 16" 
        stroke="url(#bookGradient)" stroke-width="0.8" opacity="0.7"/>
  
  <!-- Connecting spark -->
  <circle cx="18.5" cy="16" r="1" fill="url(#bookGradient)" opacity="0.8">
    <animate attributeName="opacity" values="0.8;0.3;0.8" dur="2s" repeatCount="indefinite"/>
  </circle>
  
  <!-- AI sparkles -->
  <g opacity="0.6">
    <circle cx="8" cy="8" r="0.5" fill="white">
      <animate attributeName="opacity" values="1;0;1" dur="1.5s" repeatCount="indefinite"/>
    </circle>
    <circle cx="24" cy="8" r="0.5" fill="white">
      <animate attributeName="opacity" values="0;1;0" dur="1.5s" repeatCount="indefinite"/>
    </circle>
    <circle cx="8" cy="24" r="0.5" fill="white">
      <animate attributeName="opacity" values="1;0;1" dur="2s" repeatCount="indefinite"/>
    </circle>
  </g>
</svg>
